<?xml version="1.0" encoding="utf-8"?>
<!-- Generator: Adobe Illustrator 22.1.0, SVG Export Plug-In . SVG Version: 6.00 Build 0)  -->
<svg version="1.1" id="Livello_1" xmlns="http://www.w3.org/2000/svg" xmlns:xlink="http://www.w3.org/1999/xlink" x="0px" y="0px"
	 viewBox="0 0 853 200" enable-background="new 0 0 853 200" xml:space="preserve">
<circle fill="#FFFFFF" fill-opacity="0.2" cx="100" cy="100" r="100"/>
<circle fill="#FFFFFF" fill-opacity="0.4" cx="100" cy="120" r="70"/>
<circle fill="#FFFFFF" cx="100" cy="100.001" r="40"/>
<g>
	<defs>
		<rect id="SVGID_1_" x="264" y="32" width="589" height="160"/>
	</defs>
	<clipPath id="SVGID_2_">
		<use xlink:href="#SVGID_1_"  overflow="visible"/>
	</clipPath>
	<g clip-path="url(#SVGID_2_)">
		<path fill="#FFFFFF" d="M483.605,54.27c-25.317,0-45.84,20.538-45.84,45.875c0,25.338,20.523,45.876,45.84,45.876
			c25.316,0,45.84-20.538,45.84-45.876C529.445,74.808,508.921,54.27,483.605,54.27z M483.605,123.168
			c-12.705,0-23.005-10.308-23.005-23.023c0-12.715,10.3-23.022,23.005-23.022c12.704,0,23.004,10.307,23.004,23.022
			C506.609,112.86,496.309,123.168,483.605,123.168"/>
		<path fill="#FFFFFF" d="M586.16,54.27c-25.318,0-45.84,20.538-45.84,45.875c0,25.338,20.522,45.876,45.84,45.876
			c25.317,0,45.84-20.538,45.84-45.876C632,74.808,611.477,54.27,586.16,54.27z M586.16,123.168
			c-12.705,0-23.005-10.308-23.005-23.023c0-12.715,10.3-23.022,23.005-23.022c12.704,0,23.004,10.307,23.004,23.022
			C609.164,112.86,598.864,123.168,586.16,123.168"/>
		<path fill="#FFFFFF" d="M688.714,54.27c-25.316,0-45.839,20.538-45.839,45.875c0,25.338,20.523,45.876,45.839,45.876
			c25.317,0,45.84-20.538,45.84-45.876C734.554,74.808,714.031,54.27,688.714,54.27z M688.714,123.168
			c-12.704,0-23.004-10.308-23.004-23.023c0-12.715,10.3-23.022,23.004-23.022c12.705,0,23.004,10.307,23.004,23.022
			C711.718,112.86,701.419,123.168,688.714,123.168"/>
		<path fill="#FFFFFF" d="M749.115,146.021h22.713V32h-22.713V146.021z"/>
		<path fill="#FFFFFF" d="M812.352,146.021H789.64v-85.54h22.712V146.021z"/>
		<path fill="#FFFFFF" d="M286.835,77.877c0-12.714,10.3-23.022,23.005-23.022c12.704,0,23.004,10.308,23.004,23.022h0.064v68.135
			h22.835V77.877h0.061c0-12.714,10.3-23.022,23.004-23.022c12.705,0,23.005,10.308,23.005,23.022v68.135h22.836V77.877
			c0-25.336-20.524-45.876-45.841-45.876c-13.75,0-26.081,6.068-34.484,15.669c-8.402-9.601-20.73-15.669-34.484-15.669
			c-25.317,0-45.84,20.539-45.84,45.876v68.135h22.835V77.877z"/>
		<path fill="#FFFFFF" d="M688.715,169.145c-12.705,0-23.005-10.308-23.005-23.022h-22.834c0,25.336,20.522,45.877,45.839,45.877
			c25.316,0,45.839-20.541,45.839-45.877h-22.835C711.719,158.837,701.419,169.145,688.715,169.145"/>
		<path fill="#FFFFFF" d="M853,132.871c0,7.264-5.882,13.15-13.14,13.15c-7.257,0-13.143-5.886-13.143-13.15
			c0-7.263,5.886-13.15,13.143-13.15C847.118,119.721,853,125.608,853,132.871z"/>
	</g>
</g>
</svg>
